<svg width="152" height="51" viewBox="0 0 152 51" fill="none" xmlns="http://www.w3.org/2000/svg">
<path fill-rule="evenodd" clip-rule="evenodd" d="M19.8826 0.371155L26.9403 4.66983L7.29509 16.6415L13.313 20.6894L20.2838 16.6415L40.5677 29.1184L40.2333 37.1281L20.3641 49.0139L13.5504 44.8905L33.0318 32.826L26.7765 28.7816L20.2838 32.905L0 20.8577L0.0802393 12.2673L19.8826 0.371155ZM0.240718 28.6132L0 36.9598L6.97413 41.1725L13.5504 36.7914L0.240718 28.6132ZM26.7765 12.5112L40.4072 21.1017L40.1665 12.5112L33.5935 8.5493L26.7765 12.5112Z" fill="white"/>
<path fill-rule="evenodd" clip-rule="evenodd" d="M19.8826 0.371155L26.9403 4.66983L7.29509 16.6415L13.313 20.6894L20.2838 16.6415L40.5677 29.1184L40.2333 37.1281L20.3641 49.0139L13.5504 44.8905L33.0318 32.826L26.7765 28.7816L20.2838 32.905L0 20.8577L0.0802393 12.2673L19.8826 0.371155ZM0.240718 28.6132L0 36.9598L6.97413 41.1725L13.5504 36.7914L0.240718 28.6132ZM26.7765 12.5112L40.4072 21.1017L40.1665 12.5112L33.5935 8.5493L26.7765 12.5112Z" fill="url(#paint0_linear_1769_25973)"/>
<path d="M49.7417 21.7307L51.3264 18.0367C53.2726 19.4543 55.5944 20.2254 57.9796 20.2462C60.7445 20.2462 61.8679 19.2772 61.8679 17.9783C61.8679 14.013 50.1462 16.7344 50.1462 8.86898C50.1462 5.26785 52.9112 2.27148 58.6416 2.27148C61.1791 2.27148 63.7702 2.90718 65.6425 4.14765L64.1915 7.86905C62.5033 6.81767 60.575 6.2428 58.6015 6.20249C55.8365 6.20249 54.77 7.29176 54.77 8.62501C54.77 12.5285 66.495 9.83455 66.495 17.6141C66.495 21.1534 63.7 24.1807 57.9395 24.1807C54.7533 24.1807 51.527 23.1807 49.7417 21.7307Z" fill="#004E90"/>
<path d="M68.8386 2.63212C68.8386 1.15113 69.962 0 71.6336 0C73.3053 0 74.4286 1.08927 74.4286 2.54278C74.4286 4.11656 73.3053 5.26769 71.6336 5.26769C69.962 5.26769 68.8386 4.12343 68.8386 2.63212ZM69.3869 7.53557H73.887V23.8163H69.3869V7.53557Z" fill="#004E90"/>
<path d="M104.244 14.4972V23.8162H99.7475V15.2257C99.7475 12.5936 98.6242 11.3806 96.8087 11.3806C94.8028 11.3806 93.3819 12.7551 93.3819 15.6483V23.8162H88.8885V15.2257C88.8885 12.5936 87.8219 11.3806 85.9497 11.3806C83.9638 11.3806 82.5496 12.7551 82.5496 15.6483V23.8162H78.0562V7.53547H82.349V9.41164C83.5024 8.01998 85.2309 7.2915 87.2168 7.2915C89.3766 7.2915 91.2288 8.17117 92.3153 9.95799C93.5557 8.29144 95.5717 7.2915 97.9053 7.2915C101.593 7.2915 104.244 9.5319 104.244 14.4972Z" fill="#004E90"/>
<path d="M125.157 15.6758C125.157 20.7923 121.783 24.0601 117.434 24.0601C115.505 24.0601 113.92 23.4244 112.77 22.0912V29.6886H108.273V7.53547H112.566V9.41164C113.689 7.98905 115.361 7.2915 117.434 7.2915C121.783 7.2915 125.157 10.5628 125.157 15.6758ZM120.603 15.6758C120.603 12.8616 118.905 11.1675 116.658 11.1675C114.411 11.1675 112.71 12.8616 112.71 15.6758C112.71 18.4901 114.411 20.1841 116.658 20.1841C118.905 20.1841 120.603 18.4901 120.603 15.6758Z" fill="#004E90"/>
<path d="M128.149 1.37451H132.642V23.8163H128.149V1.37451Z" fill="#004E90"/>
<path d="M151.913 17.0091H140.191C140.623 19.0364 142.264 20.2769 144.625 20.2769C145.344 20.3058 146.061 20.1808 146.731 19.9099C147.401 19.639 148.009 19.2281 148.516 18.7031L150.907 21.428C149.466 23.1461 147.306 24.0601 144.511 24.0601C139.162 24.0601 135.668 20.5174 135.668 15.6758C135.668 10.8342 139.212 7.2915 143.936 7.2915C148.486 7.2915 152 10.5009 152 15.7377C152 16.0985 151.943 16.6139 151.913 17.0091ZM140.131 14.2601H147.774C147.44 12.1984 145.985 10.872 143.969 10.872C141.953 10.872 140.449 12.1675 140.131 14.2532V14.2601Z" fill="#004E90"/>
<path d="M55.499 33.5407H49.0464V29.5513H66.6188V33.5407H60.1796V50.7217H55.499V33.5407Z" fill="#000429"/>
<path d="M83.9169 43.9246H72.1819C72.6132 45.9519 74.2548 47.1924 76.6185 47.1924C77.3373 47.221 78.0541 47.0959 78.7234 46.825C79.3927 46.5541 80 46.1433 80.5068 45.6186L82.8972 48.3401C81.4563 50.0582 79.2965 50.9757 76.5015 50.9757C71.1522 50.9757 67.6584 47.4329 67.6584 42.5913C67.6584 37.7497 71.2024 34.207 75.9264 34.207C80.4767 34.207 83.9905 37.4164 83.9905 42.6532C83.9905 43.014 83.9337 43.5294 83.9169 43.9246ZM72.1351 41.1756H79.7679C79.4503 39.1139 77.9826 37.7875 75.9666 37.7875C73.9505 37.7875 72.4394 39.0796 72.1251 41.1688L72.1351 41.1756Z" fill="#000429"/>
<path d="M85.8362 42.6089C85.8362 37.7055 89.4369 34.2246 94.4786 34.2246C97.7317 34.2246 100.296 35.709 101.419 38.3721L97.9323 40.3376C97.0998 38.7947 95.8594 38.1006 94.4485 38.1006C92.1717 38.1006 90.3864 39.7638 90.3864 42.6089C90.3864 45.4541 92.1717 47.1172 94.4485 47.1172C95.8594 47.1172 97.0998 46.4506 97.9323 44.8768L101.419 46.8767C100.296 49.4779 97.7417 51.0001 94.4786 51.0001C89.4369 50.9761 85.8362 47.4952 85.8362 42.6089Z" fill="#000429"/>
<path d="M119.854 41.4096V50.732H115.361V42.1415C115.361 39.5094 114.207 38.2964 112.221 38.2964C110.062 38.2964 108.504 39.6709 108.504 42.6845V50.7355H104.01V28.2765H108.504V36.1454C109.714 34.874 111.442 34.2074 113.432 34.2074C117.089 34.2074 119.854 36.4478 119.854 41.4096Z" fill="#000429"/>
<defs>
<linearGradient id="paint0_linear_1769_25973" x1="0" y1="24.6925" x2="40.5677" y2="24.6925" gradientUnits="userSpaceOnUse">
<stop stop-color="#183E7A"/>
<stop offset="1" stop-color="#171921"/>
</linearGradient>
</defs>
</svg>
