<svg width="152" height="51" viewBox="0 0 152 51" fill="none" xmlns="http://www.w3.org/2000/svg">
<g id="Camada 3">
<g id="Camada 1">
<path id="Vector" fill-rule="evenodd" clip-rule="evenodd" d="M19.8826 0.371124L26.9403 4.6698L7.29509 16.6415L13.313 20.6893L20.2838 16.6415L40.5677 29.1183L40.2333 37.1281L20.3641 49.0139L13.5504 44.8905L33.0318 32.826L26.7765 28.7816L20.2838 32.905L0 20.8577L0.0802393 12.2672L19.8826 0.371124ZM0.240718 28.6132L0 36.9597L6.97413 41.1725L13.5504 36.7914L0.240718 28.6132ZM26.7765 12.5112L40.4072 21.1017L40.1665 12.5112L33.5935 8.54927L26.7765 12.5112Z" fill="white"/>
<path id="Vector_2" d="M49.7417 21.7304L51.3264 18.0365C53.2726 19.4541 55.5944 20.2251 57.9796 20.246C60.7445 20.246 61.8679 19.277 61.8679 17.9781C61.8679 14.0127 50.1462 16.7342 50.1462 8.86876C50.1462 5.26763 52.9112 2.27127 58.6416 2.27127C61.1791 2.27127 63.7702 2.90697 65.6425 4.14743L64.1915 7.86883C62.5033 6.81746 60.575 6.24258 58.6015 6.20228C55.8365 6.20228 54.77 7.29155 54.77 8.62479C54.77 12.5283 66.495 9.83433 66.495 17.6139C66.495 21.1532 63.7 24.1804 57.9395 24.1804C54.7533 24.1804 51.527 23.1805 49.7417 21.7304Z" fill="#004E90"/>
<path id="Vector_3" d="M68.8384 2.63212C68.8384 1.15113 69.9617 0 71.6334 0C73.305 0 74.4284 1.08927 74.4284 2.54278C74.4284 4.11656 73.305 5.26769 71.6334 5.26769C69.9617 5.26769 68.8384 4.12343 68.8384 2.63212ZM69.3867 7.53557H73.8868V23.8163H69.3867V7.53557Z" fill="#004E90"/>
<path id="Vector_4" d="M104.244 14.4974V23.8163H99.7475V15.2259C99.7475 12.5937 98.6242 11.3808 96.8087 11.3808C94.8028 11.3808 93.3819 12.7552 93.3819 15.6485V23.8163H88.8885V15.2259C88.8885 12.5937 87.8219 11.3808 85.9497 11.3808C83.9638 11.3808 82.5496 12.7552 82.5496 15.6485V23.8163H78.0562V7.53566H82.349V9.41182C83.5024 8.02016 85.2309 7.29169 87.2168 7.29169C89.3766 7.29169 91.2288 8.17135 92.3153 9.95817C93.5557 8.29162 95.5717 7.29169 97.9053 7.29169C101.593 7.29169 104.244 9.53209 104.244 14.4974Z" fill="#004E90"/>
<path id="Vector_5" d="M125.157 15.676C125.157 20.7925 121.783 24.0603 117.434 24.0603C115.505 24.0603 113.92 23.4246 112.77 22.0914V29.6888H108.273V7.53566H112.566V9.41182C113.689 7.98923 115.361 7.29169 117.434 7.29169C121.783 7.29169 125.157 10.5629 125.157 15.676ZM120.603 15.676C120.603 12.8618 118.905 11.1677 116.658 11.1677C114.411 11.1677 112.71 12.8618 112.71 15.676C112.71 18.4902 114.411 20.1843 116.658 20.1843C118.905 20.1843 120.603 18.4902 120.603 15.676Z" fill="#004E90"/>
<path id="Vector_6" d="M128.149 1.37448H132.642V23.8163H128.149V1.37448Z" fill="#004E90"/>
<path id="Vector_7" d="M151.913 17.0092H140.191C140.623 19.0366 142.264 20.2771 144.625 20.2771C145.344 20.306 146.061 20.181 146.731 19.9101C147.401 19.6392 148.009 19.2282 148.516 18.7033L150.907 21.4282C149.466 23.1463 147.306 24.0603 144.511 24.0603C139.162 24.0603 135.668 20.5176 135.668 15.676C135.668 10.8344 139.212 7.29169 143.936 7.29169C148.486 7.29169 152 10.5011 152 15.7379C152 16.0987 151.943 16.6141 151.913 17.0092ZM140.131 14.2603H147.774C147.44 12.1986 145.985 10.8722 143.969 10.8722C141.953 10.8722 140.449 12.1676 140.131 14.2534V14.2603Z" fill="#004E90"/>
<path id="Vector_8" d="M55.499 33.5407H49.0464V29.5513H66.6188V33.5407H60.1796V50.7217H55.499V33.5407Z" fill="white"/>
<path id="Vector_9" d="M83.9172 43.9248H72.1822C72.6135 45.9522 74.255 47.1926 76.6187 47.1926C77.3376 47.2212 78.0543 47.0961 78.7236 46.8252C79.3929 46.5543 80.0002 46.1435 80.507 45.6188L82.8975 48.3403C81.4565 50.0584 79.2967 50.9759 76.5017 50.9759C71.1524 50.9759 67.6587 47.4332 67.6587 42.5916C67.6587 37.75 71.2026 34.2072 75.9267 34.2072C80.4769 34.2072 83.9907 37.4166 83.9907 42.6534C83.9907 43.0142 83.9339 43.5296 83.9172 43.9248ZM72.1354 41.1758H79.7681C79.4505 39.1141 77.9828 37.7878 75.9668 37.7878C73.9508 37.7878 72.4396 39.0798 72.1253 41.169L72.1354 41.1758Z" fill="white"/>
<path id="Vector_10" d="M85.8359 42.6089C85.8359 37.7054 89.4367 34.2245 94.4784 34.2245C97.7314 34.2245 100.296 35.709 101.419 38.372L97.932 40.3375C97.0995 38.7947 95.8592 38.1006 94.4483 38.1006C92.1715 38.1006 90.3862 39.7637 90.3862 42.6089C90.3862 45.454 92.1715 47.1171 94.4483 47.1171C95.8592 47.1171 97.0995 46.4505 97.932 44.8768L101.419 46.8766C100.296 49.4778 97.7414 51 94.4784 51C89.4367 50.976 85.8359 47.4951 85.8359 42.6089Z" fill="white"/>
<path id="Vector_11" d="M119.854 41.4096V50.732H115.361V42.1415C115.361 39.5094 114.207 38.2964 112.221 38.2964C110.062 38.2964 108.504 39.6709 108.504 42.6844V50.7354H104.01V28.2765H108.504V36.1453C109.714 34.874 111.442 34.2073 113.432 34.2073C117.089 34.2073 119.854 36.4477 119.854 41.4096Z" fill="white"/>
</g>
</g>
</svg>
